<svg aria-hidden="true" style="width:0;height:0;position:absolute;overflow:hidden" xmlns="http://www.w3.org/2000/svg"><defs><symbol id="instagram" viewBox="0 0 32 32"><path d="M19.063 16a3.063 3.063 0 1 1-6.126 0 3.063 3.063 0 0 1 6.126 0z"/><path d="M23.162 10.582a2.84 2.84 0 0 0-.687-1.056 2.84 2.84 0 0 0-1.056-.687c-.324-.126-.81-.275-1.706-.316-.969-.044-1.26-.054-3.713-.054s-2.744.009-3.713.053c-.896.041-1.382.191-1.706.316a2.84 2.84 0 0 0-1.056.687c-.305.296-.54.657-.688 1.056-.126.324-.275.81-.316 1.706-.044.969-.054 1.259-.054 3.713s.01 2.744.054 3.713c.041.896.19 1.382.316 1.706.147.399.382.76.687 1.056.296.305.657.54 1.056.687.324.126.81.276 1.706.316.969.044 1.259.053 3.712.053s2.744-.009 3.713-.053c.896-.041 1.382-.19 1.706-.316a3.042 3.042 0 0 0 1.744-1.744c.126-.324.275-.81.316-1.706.044-.969.053-1.26.053-3.713s-.009-2.744-.053-3.713c-.041-.896-.19-1.382-.316-1.706zM16 20.718a4.718 4.718 0 1 1 0-9.435 4.718 4.718 0 0 1 0 9.435zm4.904-8.52a1.102 1.102 0 1 1 0-2.205 1.102 1.102 0 0 1 0 2.205z"/><path d="M16 0C7.165 0 0 7.165 0 16s7.165 16 16 16 16-7.165 16-16S24.835 0 16 0zm9.132 19.788c-.044.978-.2 1.646-.427 2.23a4.697 4.697 0 0 1-2.687 2.687c-.584.227-1.252.382-2.23.427-.98.045-1.293.055-3.788.055s-2.808-.011-3.788-.055c-.978-.045-1.646-.2-2.23-.427a4.5 4.5 0 0 1-1.627-1.06 4.513 4.513 0 0 1-1.06-1.627c-.227-.584-.383-1.252-.427-2.23-.045-.98-.056-1.293-.056-3.788s.011-2.808.055-3.788c.044-.978.2-1.646.427-2.23a4.513 4.513 0 0 1 1.06-1.627 4.5 4.5 0 0 1 1.627-1.06c.584-.227 1.252-.382 2.23-.427.98-.045 1.293-.055 3.788-.055s2.808.011 3.788.056c.978.044 1.646.2 2.23.427a4.517 4.517 0 0 1 1.628 1.06 4.498 4.498 0 0 1 1.059 1.627c.227.584.383 1.252.427 2.23.045.98.055 1.293.055 3.788s-.011 2.808-.055 3.788z"/></symbol><symbol id="facebook" viewBox="0 0 32 32"><path d="M32 16c0-8.838-7.163-16-16-16S0 7.162 0 16c0 8.837 7.162 16 16 16 .094 0 .188 0 .281-.006v-12.45h-3.437v-4.006h3.437v-2.95c0-3.419 2.088-5.281 5.138-5.281 1.463 0 2.719.106 3.081.156v3.575h-2.1c-1.656 0-1.981.787-1.981 1.944v2.55h3.969l-.519 4.006h-3.45v11.844C27.107 29.463 32 23.307 32 16.001z"/></symbol><symbol id="linkedin" viewBox="0 0 32 32"><path d="M16 0C7.165 0 0 7.165 0 16s7.165 16 16 16 16-7.165 16-16S24.835 0 16 0zm-4.649 24.188H7.454V12.465h3.897v11.723zM9.402 10.863h-.025c-1.308 0-2.153-.9-2.153-2.025 0-1.15.872-2.026 2.205-2.026s2.153.875 2.179 2.026c0 1.125-.846 2.025-2.205 2.025zm15.999 13.325h-3.896v-6.272c0-1.576-.564-2.651-1.974-2.651-1.076 0-1.718.725-1.999 1.425-.103.25-.128.601-.128.951v6.547h-3.896s.051-10.624 0-11.723h3.896v1.66c.518-.799 1.444-1.935 3.512-1.935 2.564 0 4.486 1.675 4.486 5.276v6.722z"/></symbol><symbol id="maps" viewBox="0 0 32 32"><path d="M16 0C9.61 0 4.411 5.199 4.411 11.589c0 7.93 10.371 19.573 10.813 20.065a1.044 1.044 0 0 0 1.553 0c.442-.492 10.813-12.134 10.813-20.065C27.59 5.199 22.391 0 16.001 0zm0 17.42c-3.215 0-5.831-2.616-5.831-5.831S12.785 5.758 16 5.758c3.215 0 5.831 2.616 5.831 5.831S19.215 17.42 16 17.42z"/></symbol><symbol id="calendar" viewBox="0 0 32 32"><path d="M28.25 2.5h-1.5V0h-2.5v2.5H7.75V0h-2.5v2.5h-1.5A3.754 3.754 0 0 0 0 6.25v22A3.754 3.754 0 0 0 3.75 32h24.5A3.754 3.754 0 0 0 32 28.25v-22a3.754 3.754 0 0 0-3.75-3.75zm1.25 25.75c0 .689-.561 1.25-1.25 1.25H3.75c-.689 0-1.25-.561-1.25-1.25v-16.5h27v16.5zm0-19h-27v-3C2.5 5.561 3.061 5 3.75 5h1.5v2.5h2.5V5h16.5v2.5h2.5V5h1.5c.689 0 1.25.561 1.25 1.25v3z"/><path d="M7.25 14.375h-2.5v2.5h2.5v-2.5zm5 0h-2.5v2.5h2.5v-2.5zm5 0h-2.5v2.5h2.5v-2.5zm5 0h-2.5v2.5h2.5v-2.5zm5 0h-2.5v2.5h2.5v-2.5zm-20 5h-2.5v2.5h2.5v-2.5zm5 0h-2.5v2.5h2.5v-2.5zm5 0h-2.5v2.5h2.5v-2.5zm5 0h-2.5v2.5h2.5v-2.5zm-15 5h-2.5v2.5h2.5v-2.5zm5 0h-2.5v2.5h2.5v-2.5zm5 0h-2.5v2.5h2.5v-2.5zm5 0h-2.5v2.5h2.5v-2.5zm5-5h-2.5v2.5h2.5v-2.5z"/></symbol><symbol id="call" viewBox="0 0 32 32"><path d="M29.432 21.004c-1.959 0-3.883-.306-5.706-.909-.893-.305-1.991-.025-2.537.535l-3.598 2.716c-4.173-2.227-6.743-4.797-8.94-8.938l2.636-3.504a2.585 2.585 0 0 0 .636-2.621 18.192 18.192 0 0 1-.912-5.715A2.57 2.57 0 0 0 8.443 0H2.566A2.57 2.57 0 0 0-.002 2.568C-.002 18.797 13.201 32 29.43 32a2.57 2.57 0 0 0 2.568-2.568v-5.86a2.57 2.57 0 0 0-2.568-2.568z"/></symbol></defs></svg>